<?xml version="1.0" standalone="no"?>
<!DOCTYPE svg PUBLIC "-//W3C//DTD SVG 20010904//EN"
 "http://www.w3.org/TR/2001/REC-SVG-20010904/DTD/svg10.dtd">
<svg version="1.0" xmlns="http://www.w3.org/2000/svg"
 width="300.000000pt" height="300.000000pt" viewBox="0 0 300.000000 300.000000"
 preserveAspectRatio="xMidYMid meet">
<metadata>
Created by potrace 1.11, written by Peter Selinger 2001-2013
</metadata>
<g transform="translate(0.000000,300.000000) scale(0.100000,-0.100000)"
fill="#000000" stroke="none">
<path d="M0 2328 c0 -579 2 -677 15 -702 14 -26 14 -27 0 -16 -14 12 -15 6
-13 -48 1 -34 4 -59 6 -57 9 8 63 -58 58 -71 -3 -8 1 -14 10 -14 25 0 6 -18
-27 -25 -22 -5 -34 -3 -40 6 -5 8 -9 -295 -9 -693 l0 -708 1119 0 c720 0 1129
4 1146 10 19 7 24 7 19 -1 -14 -23 85 -2 152 31 36 17 63 34 61 37 -3 2 -27
-7 -54 -20 -104 -53 -123 -44 -23 10 69 37 127 73 119 73 -6 0 -99 -32 -133
-46 -13 -5 -17 -4 -12 4 3 6 37 25 76 43 57 26 70 37 75 60 8 33 -1 67 -23 92
-8 9 -12 20 -9 23 14 14 48 -62 45 -99 -4 -44 16 -51 28 -9 5 20 8 23 11 10 5
-21 14 -23 31 -6 6 6 23 12 37 14 14 1 32 10 41 18 8 9 36 28 62 43 26 15 50
31 53 36 4 5 11 7 17 3 5 -3 12 1 16 9 3 8 11 15 18 15 30 0 91 23 109 41 19
19 19 47 19 1314 l0 1295 -1500 0 -1500 0 0 -672z m1397 396 c-3 -3 -12 -4
-19 -1 -8 3 -5 6 6 6 11 1 17 -2 13 -5z m-254 -18 c34 0 98 3 142 7 62 5 74 4
55 -4 -14 -6 -90 -12 -171 -13 l-145 -1 19 -32 c10 -18 27 -35 38 -38 30 -10
52 -60 38 -86 -8 -15 -8 -24 0 -32 14 -14 14 -64 1 -72 -5 -3 -10 -1 -10 4 0
15 -11 13 -35 -5 -17 -13 -20 -27 -21 -112 0 -110 -9 -149 -28 -133 -7 6 -16
8 -19 4 -4 -3 -19 -6 -34 -7 -22 -1 -29 -6 -31 -27 -2 -15 -12 -35 -23 -45
-10 -9 -19 -21 -19 -25 0 -5 -11 -33 -25 -63 -14 -30 -25 -59 -25 -64 0 -5
-13 -26 -30 -47 -16 -21 -30 -43 -30 -50 0 -7 -6 -18 -14 -24 -11 -9 -15 -7
-19 9 -3 11 -2 18 2 16 4 -3 12 8 18 24 11 28 10 28 -36 33 -69 8 -111 18
-111 27 0 5 10 6 23 4 12 -2 4 2 -18 10 -22 7 -53 11 -68 10 -17 -2 -26 0 -22
6 3 6 1 10 -4 10 -6 0 -11 -6 -11 -12 0 -7 -15 16 -33 51 -17 36 -36 64 -40
62 -5 -1 -15 6 -24 16 -9 11 -12 12 -8 3 4 -10 2 -9 -8 2 -8 10 -16 15 -19 13
-3 -3 -11 1 -18 10 -11 13 -10 14 6 9 18 -7 18 -6 3 12 -26 30 -34 48 -19 39
8 -5 5 8 -7 31 -12 21 -28 55 -37 74 -8 19 -16 30 -16 23 0 -7 -6 -10 -14 -7
-12 4 -11 10 1 36 13 24 13 37 4 68 -6 21 -18 41 -26 44 -8 3 -15 13 -15 21 0
9 -14 44 -31 78 -34 69 -33 68 40 -20 59 -72 64 -83 81 -180 8 -50 16 -73 26
-73 8 0 14 11 15 28 1 15 5 1 10 -31 6 -43 19 -72 49 -115 39 -55 149 -156
159 -147 2 3 -11 24 -29 48 l-33 42 44 -42 c60 -56 117 -93 145 -93 20 0 24 5
24 30 0 17 -8 43 -17 58 -12 20 -4 15 31 -18 27 -25 50 -40 52 -35 3 6 22 38
44 70 22 33 40 70 40 82 0 29 21 73 34 73 34 1 97 110 80 138 -8 12 -5 24 13
51 15 23 22 43 18 58 -3 12 -1 25 5 28 5 3 10 1 10 -6 0 -27 20 8 24 41 3 27
-2 39 -29 64 -29 27 -65 83 -65 101 0 3 18 2 40 -1 22 -4 68 -7 103 -8z m961
-362 c3 -8 2 -12 -4 -9 -6 3 -10 10 -10 16 0 14 7 11 14 -7z m103 -318 c-2
-116 0 -238 5 -271 11 -74 4 -109 -22 -102 -23 6 -34 -17 -20 -43 18 -33 4
-65 -23 -54 -9 3 -14 11 -11 16 4 6 -2 5 -14 -1 -25 -13 -43 -14 -22 -1 44 28
-98 130 -182 130 -29 0 -38 4 -38 17 0 15 -2 14 -14 -2 -13 -18 -19 -18 -67
-8 -30 6 -86 10 -126 9 -59 -1 -76 -5 -96 -24 -18 -17 -26 -19 -35 -10 -7 7
-12 20 -12 30 0 27 -13 22 -33 -12 -10 -16 -24 -30 -31 -30 -7 0 -21 -9 -31
-20 -10 -11 -22 -20 -27 -20 -6 0 -18 -10 -27 -22 -23 -27 -41 -16 -41 25 0
39 13 62 32 54 8 -2 25 4 39 14 29 23 43 24 35 4 -3 -9 12 -1 34 16 38 30 41
31 58 16 15 -14 24 -15 50 -6 17 6 34 19 37 30 4 10 13 19 22 19 10 0 13 -6 9
-16 -3 -8 -2 -12 4 -9 6 3 10 13 10 21 0 8 7 14 15 14 8 0 15 -4 15 -9 0 -14
53 -10 75 5 11 8 14 14 7 14 -6 0 -12 9 -12 20 0 11 5 20 10 20 6 0 11 8 11
18 1 16 2 16 6 -1 2 -9 9 -15 14 -11 15 9 52 -7 41 -18 -6 -6 -3 -24 10 -50
21 -44 35 -47 19 -4 -10 24 -8 26 14 26 13 0 27 -4 30 -10 3 -5 24 -10 46 -10
25 0 51 -8 68 -21 16 -12 34 -18 39 -15 6 4 15 -1 21 -11 9 -17 10 -17 30 1
12 11 21 26 21 34 0 12 3 12 15 2 13 -11 15 -9 15 13 0 13 -7 44 -15 67 -19
54 -19 73 1 38 8 -16 17 -28 21 -28 15 0 -11 82 -47 150 -22 41 -45 86 -51
100 -13 30 -39 163 -33 169 2 2 25 -17 50 -42 35 -36 45 -52 41 -70 -3 -12 1
-31 9 -41 8 -11 14 -34 14 -52 0 -18 5 -36 10 -39 6 -4 10 29 10 91 0 94 -1
97 -35 144 -49 67 -43 74 11 16 l46 -50 -5 -210z m-1767 3 c0 -20 -52 -49 -85
-48 -11 1 -29 -1 -40 -4 -11 -3 -30 3 -43 13 -29 24 -28 32 3 20 61 -23 170 4
144 36 -10 12 -9 13 5 8 9 -3 16 -14 16 -25z m177 -75 c-3 -3 -12 -4 -19 -1
-8 3 -5 6 6 6 11 1 17 -2 13 -5z m1429 -37 c-3 -14 3 -28 19 -43 14 -13 25
-28 25 -34 0 -5 4 -10 8 -10 4 0 12 -13 18 -29 10 -25 9 -28 -6 -24 -12 3 -16
11 -12 26 3 12 1 19 -3 15 -13 -12 -63 23 -75 52 -8 19 -8 34 0 54 11 31 35
25 26 -7z m-1729 -69 c-3 -7 -5 -2 -5 12 0 14 2 19 5 13 2 -7 2 -19 0 -25z
m1423 6 c0 -8 -4 -12 -10 -9 -5 3 -10 10 -10 16 0 5 5 9 10 9 6 0 10 -7 10
-16z m-1008 -126 c-8 -8 -9 -4 -5 13 4 13 8 18 11 10 2 -7 -1 -18 -6 -23z
m1533 12 c-3 -5 -12 -10 -18 -10 -7 0 -6 4 3 10 19 12 23 12 15 0z m-1910 -32
c-3 -7 -20 -21 -38 -31 l-32 -17 35 30 c40 34 41 34 35 18z m2070 -37 c-3 -16
-13 -35 -21 -42 -17 -14 -19 2 -2 19 9 9 9 12 -2 12 -11 1 -11 3 3 11 9 5 17
17 17 26 0 9 3 14 6 10 3 -3 3 -19 -1 -36z m-1704 6 c-10 -9 -11 -8 -5 6 3 10
9 15 12 12 3 -3 0 -11 -7 -18z m1538 -127 c14 -54 26 -137 31 -227 9 -143 15
-168 50 -203 18 -18 50 -112 50 -147 -1 -17 -1 -17 -14 -1 -16 22 -26 13 -26
-22 0 -17 -11 -36 -30 -53 -30 -27 -38 -51 -21 -62 5 -3 15 1 23 8 7 7 21 16
31 20 9 3 17 12 17 19 0 9 -3 8 -10 -2 -6 -9 -10 -10 -10 -3 0 7 9 17 19 23
17 9 19 7 16 -12 -3 -13 -10 -35 -16 -50 -9 -23 -8 -32 11 -58 12 -17 23 -37
24 -44 1 -8 7 -20 12 -27 6 -8 14 -22 17 -31 8 -23 27 -23 27 0 1 9 7 28 14
42 l14 25 7 -38 c4 -20 2 -57 -4 -82 -6 -24 -11 -52 -11 -62 0 -15 4 -14 19 7
l20 25 -5 -43 c-4 -48 8 -56 24 -15 17 44 27 316 12 343 l-12 22 -14 -21 c-9
-12 -26 -21 -40 -21 -26 0 -31 -9 -12 -28 9 -9 9 -12 -3 -12 -25 0 -62 -37
-53 -52 6 -9 3 -9 -10 1 -23 19 -16 91 12 119 24 24 74 20 65 -7 -5 -14 -4
-14 12 1 15 14 18 32 17 104 0 47 2 83 5 80 4 -3 12 -34 20 -69 l13 -62 -4 70
c-2 42 0 62 5 50 4 -11 8 -42 9 -70 0 -27 5 -68 10 -90 6 -22 12 -121 15 -220
3 -112 8 -181 15 -183 18 -6 11 -28 -20 -55 -34 -31 -38 -27 -11 11 11 16 16
34 12 45 -5 15 -12 7 -31 -35 -13 -29 -35 -63 -49 -75 -22 -19 -23 -24 -11
-40 12 -15 12 -16 0 -5 -18 16 -50 15 -74 -3 -11 -8 -43 -22 -73 -30 -30 -9
-74 -31 -99 -50 -25 -19 -49 -35 -54 -35 -5 0 -26 -11 -46 -25 -45 -31 -54
-31 -46 -2 4 18 3 20 -9 11 -8 -6 -30 -14 -49 -18 l-35 -6 45 27 c25 15 51 35
58 44 7 10 18 24 25 31 7 7 23 28 36 46 26 38 14 41 -38 10 -33 -20 -31 -17
22 41 31 34 57 67 57 73 0 6 -33 -19 -74 -56 -41 -36 -76 -66 -77 -66 -2 0 -5
21 -7 47 -4 55 -6 60 -26 44 -10 -8 -13 -23 -10 -40 4 -21 -1 -35 -25 -60 -18
-19 -35 -30 -39 -27 -4 4 2 15 13 25 38 32 48 60 31 86 -18 28 -11 36 79 87
33 18 61 39 63 46 3 14 -1 13 -57 -25 -50 -34 -60 -28 -20 14 24 26 28 34 14
29 -11 -5 -27 -10 -35 -13 -8 -3 8 17 35 44 64 63 120 124 121 135 1 4 2 12 3
17 0 5 8 8 17 7 9 0 19 5 22 13 3 10 0 11 -9 5 -12 -7 -12 -5 0 9 12 15 11 17
-3 17 -9 0 -16 -6 -16 -12 -1 -24 -58 -71 -79 -65 -11 3 -19 2 -18 -2 4 -12
-62 -117 -92 -145 -17 -17 -31 -35 -31 -43 0 -7 -9 -17 -20 -23 -17 -9 -20 -8
-20 7 0 10 22 36 49 58 37 30 55 54 70 95 11 30 19 55 18 56 -1 1 -27 4 -57 7
l-55 6 40 -14 c25 -8 39 -18 37 -26 -6 -25 -21 -33 -37 -19 -14 12 -18 11 -26
-1 -5 -8 -9 -18 -9 -22 0 -5 -4 -5 -10 -2 -5 3 -10 1 -10 -6 0 -7 -3 -9 -7 -6
-3 4 -13 1 -21 -6 -13 -10 -15 -9 -9 6 3 9 2 17 -2 17 -5 0 -14 -13 -19 -29
-11 -30 -43 -66 -77 -83 -12 -6 -6 4 14 26 19 19 32 38 29 41 -3 3 -24 -15
-47 -40 -22 -24 -41 -41 -41 -37 0 13 93 144 123 174 15 15 27 31 27 36 0 5
-35 13 -77 17 -42 4 -86 11 -97 15 -32 12 129 0 211 -16 79 -15 179 -19 187
-6 3 5 -21 6 -53 4 -41 -3 -61 0 -72 10 -10 10 -36 15 -78 16 -105 1 -90 14
32 27 46 5 56 9 47 20 -8 9 -6 14 5 19 9 3 18 -1 22 -10 12 -33 135 23 146 67
5 20 7 20 31 4 32 -21 34 -10 4 15 l-23 19 26 50 c22 41 25 57 19 96 -4 27
-17 56 -32 73 -43 47 -65 95 -77 166 -12 71 -9 106 4 40 10 -58 91 -205 116
-212 11 -3 11 -2 1 6 -7 5 -24 42 -38 83 -32 96 -105 262 -118 271 -15 10 -3
19 38 28 39 9 42 5 50 -62 2 -20 10 -47 17 -60 12 -22 11 -22 -6 -8 -17 14
-18 13 -11 -5 5 -11 15 -39 23 -63 8 -24 18 -41 21 -38 3 3 11 1 19 -6 12 -9
13 -7 9 13 -3 13 -10 50 -16 82 -28 155 -31 167 -48 167 -15 0 -15 2 -2 10 10
6 14 22 11 47 -4 59 13 28 38 -67z m128 7 c-2 -29 -6 -58 -10 -64 -4 -6 -3
-14 3 -18 5 -3 10 -14 10 -23 0 -13 -3 -11 -16 6 -12 18 -13 26 -4 37 8 9 8
15 2 15 -5 0 -9 11 -8 25 0 14 4 25 9 25 4 0 7 11 7 25 0 14 2 25 5 25 3 0 4
-24 2 -53z m-1057 3 c-7 -13 -7 -21 1 -25 7 -5 3 -14 -9 -26 -11 -10 -23 -27
-26 -37 -4 -11 -23 -28 -44 -38 -42 -21 -76 -55 -99 -99 -23 -44 -75 -203 -59
-182 12 16 15 13 26 -35 11 -51 33 -115 51 -150 14 -27 11 -49 -8 -67 -18 -16
-21 -27 -27 -84 -4 -39 -16 -45 -35 -19 -9 13 -30 41 -48 62 -20 26 -29 47
-26 60 6 24 19 26 27 5 8 -21 73 -21 73 0 0 8 -4 15 -7 15 -15 0 -30 57 -32
122 -2 38 -6 68 -9 68 -13 0 -40 -78 -54 -157 -20 -112 -19 -143 5 -173 l19
-25 -6 24 c-6 24 -5 24 34 -8 31 -25 42 -42 47 -72 8 -52 3 -59 -40 -49 -33 8
-72 45 -66 63 1 4 -10 24 -24 43 -34 44 -34 63 5 214 44 173 52 199 73 225 27
35 21 50 -7 18 l-25 -28 21 50 c12 28 41 79 64 115 23 36 49 79 58 96 17 34
47 63 47 46 0 -6 -4 -14 -10 -17 -5 -3 -10 -11 -10 -16 0 -6 20 6 45 27 29 23
45 44 45 59 0 28 10 38 26 24 10 -8 11 -16 4 -29z m-984 -45 c-11 -8 -25 -15
-30 -15 -6 1 0 7 14 15 32 19 40 18 16 0z m2014 -73 c0 -13 -4 -21 -9 -17 -5
3 -9 19 -9 36 1 35 18 18 18 -19z m-2099 23 c25 -10 29 -14 13 -15 -11 0 -29
7 -40 15 -25 19 -15 19 27 0z m1142 3 c12 -7 38 -17 57 -23 39 -12 47 -31 27
-59 -13 -18 -14 -17 -10 11 4 22 1 30 -11 30 -9 0 -16 -6 -16 -13 0 -41 -103
-42 -114 -1 -10 38 -7 47 20 47 14 0 23 4 19 10 -8 13 2 13 28 -2z m411 -4
c16 -6 12 -29 -10 -55 -14 -16 -56 -18 -87 -5 -16 7 -14 11 14 32 18 13 36 21
40 19 4 -3 10 -1 14 5 7 12 8 12 29 4z m569 -71 c-3 -9 -9 -11 -15 -5 -5 5 -6
17 -2 26 5 13 9 14 14 5 5 -7 6 -19 3 -26z m37 7 c6 -11 8 -20 6 -20 -3 0 -10
9 -16 20 -6 11 -8 20 -6 20 3 0 10 -9 16 -20z m-610 -35 c-7 -9 -15 -13 -18
-10 -3 2 1 11 8 20 7 9 15 13 18 10 3 -2 -1 -11 -8 -20z m-460 5 c0 -5 -4 -10
-10 -10 -5 0 -10 5 -10 10 0 6 5 10 10 10 6 0 10 -4 10 -10z m419 -6 c-13 -16
-55 -19 -64 -4 -4 7 3 9 22 5 19 -5 24 -4 14 3 -10 7 -6 10 13 10 21 0 24 -3
15 -14z m771 -130 l-20 -59 6 60 c3 33 6 80 6 105 l-1 45 15 -46 c13 -42 13
-50 -6 -105z m-1160 123 c0 -8 -7 -14 -15 -14 -11 0 -12 4 -4 14 6 7 13 13 15
13 2 0 4 -6 4 -13z m46 1 c5 -7 3 -8 -6 -3 -7 4 -16 2 -21 -6 -7 -11 -9 -10
-9 4 0 19 25 23 36 5z m-1306 -6 c0 -10 -44 -32 -63 -32 -7 0 2 9 18 20 32 22
45 25 45 12z m20 -53 c-8 -5 -28 -17 -45 -25 l-30 -15 28 25 c15 15 36 26 45
26 15 0 15 -2 2 -11z m22 -93 c-21 -24 -33 -32 -38 -24 -7 11 55 72 64 63 3
-2 -9 -20 -26 -39z m28 -11 c-37 -27 -40 -29 -40 -17 0 9 50 41 64 42 6 0 -5
-11 -24 -25z m1958 -127 c-1 -40 -4 -47 -20 -45 -36 6 -39 21 -16 93 l22 69 8
-35 c4 -19 7 -56 6 -82z m557 0 c-5 -25 -4 -29 4 -18 9 13 11 13 11 -2 0 -9
11 -29 24 -45 13 -15 32 -46 43 -67 l20 -39 -24 -43 c-26 -46 -43 -56 -43 -26
0 14 -2 15 -9 2 -6 -8 -8 -17 -5 -21 2 -4 0 -10 -6 -14 -5 -3 -12 6 -16 21 -5
19 -2 29 10 36 9 5 27 19 41 31 23 20 24 25 13 60 -7 23 -23 45 -40 55 -32 19
-42 43 -34 78 9 36 19 29 11 -8z m-604 -76 c-9 -3 -9 -7 -1 -17 9 -11 3 -18
-31 -34 -23 -12 -45 -19 -47 -16 -3 2 9 20 27 40 17 20 31 41 31 47 0 6 6 5
16 -3 11 -9 12 -15 5 -17z m343 2 c3 -8 2 -12 -4 -9 -6 3 -10 10 -10 16 0 14
7 11 14 -7z m-1199 -131 c23 -44 60 -81 93 -94 12 -5 22 -13 22 -19 0 -6 -4
-9 -9 -5 -5 3 -12 1 -15 -4 -4 -5 -2 -12 4 -16 5 -3 10 -12 10 -18 0 -7 -4 -6
-10 3 -9 13 -11 13 -20 0 -9 -13 -10 -13 -10 0 0 9 -8 16 -17 17 -29 3 -114
22 -125 29 -6 4 -6 10 1 17 13 13 15 30 2 23 -13 -8 -20 16 -14 47 4 18 14 29
29 33 13 3 24 10 24 15 0 5 -7 6 -15 3 -17 -7 -18 -3 -9 21 6 14 8 14 23 1 9
-8 25 -32 36 -53z m1437 -120 c3 -27 0 -57 -6 -68 -9 -19 -10 -19 -17 5 -9 33
-11 95 -2 103 15 15 21 5 25 -40z m-1479 -11 c40 -1 90 -21 55 -22 -10 0 -18
-4 -18 -9 0 -17 43 -24 133 -22 58 1 86 -2 82 -9 -4 -6 5 -10 20 -10 15 0 33
-7 41 -15 14 -13 13 -15 -7 -15 -12 0 -19 -3 -16 -6 4 -4 26 -2 49 4 24 6 59
14 78 16 l35 6 -40 -20 c-48 -23 -73 -32 -100 -35 -11 -1 -47 -10 -79 -20 -67
-20 -153 -16 -170 7 -6 8 -29 21 -51 29 -72 24 -78 37 -65 139 0 3 4 0 8 -6 4
-6 24 -11 45 -12z m547 -2 c0 -5 -10 -15 -22 -21 -23 -12 -23 -12 -4 10 21 23
26 26 26 11z m115 -29 c-16 -10 -41 -22 -55 -25 l-25 -7 28 25 c16 15 40 26
55 26 l27 0 -30 -19z m884 -26 c0 -5 -4 -3 -9 5 -5 8 -9 22 -9 30 0 16 17 -16
18 -35z m-23 -360 c-29 -25 -46 -31 -46 -17 0 8 50 40 65 41 6 1 -3 -10 -19
-24z m-56 -29 c0 -2 -7 -6 -15 -10 -8 -3 -15 -1 -15 4 0 6 7 10 15 10 8 0 15
-2 15 -4z m-465 -216 c3 -5 1 -10 -4 -10 -6 0 -11 5 -11 10 0 6 2 10 4 10 3 0
8 -4 11 -10z m180 -9 c-16 -15 -85 -42 -85 -33 0 5 15 16 33 25 36 18 66 22
52 8z"/>
<path d="M985 2240 c-3 -5 -3 -15 1 -21 6 -11 23 6 24 24 0 10 -18 9 -25 -3z"/>
<path d="M402 2181 c2 -13 18 -35 36 -49 42 -32 40 -17 -4 33 -31 35 -35 37
-32 16z"/>
<path d="M520 2046 c0 -2 8 -10 18 -17 15 -13 16 -12 3 4 -13 16 -21 21 -21
13z"/>
<path d="M574 2006 c11 -9 24 -16 30 -16 12 0 7 5 -24 19 -24 11 -24 11 -6 -3z"/>
<path d="M2176 1735 c4 -8 8 -15 10 -15 2 0 4 7 4 15 0 8 -4 15 -10 15 -5 0
-7 -7 -4 -15z"/>
<path d="M2136 1723 c-9 -9 -7 -51 3 -57 14 -9 21 6 11 25 -7 12 -6 19 2 21 8
3 9 6 1 11 -5 4 -13 4 -17 0z"/>
<path d="M1366 1653 c-6 -14 -5 -15 5 -6 7 7 10 15 7 18 -3 3 -9 -2 -12 -12z"/>
<path d="M2294 1004 c-4 -10 -9 -22 -11 -26 -2 -5 0 -8 5 -8 10 0 24 41 17 48
-3 3 -8 -4 -11 -14z"/>
<path d="M2257 843 c-10 -9 -8 -65 1 -59 5 3 9 19 10 36 1 32 -1 34 -11 23z"/>
<path d="M2235 607 c-41 -30 -58 -47 -83 -83 -12 -17 -35 -38 -53 -46 -18 -9
-27 -18 -20 -22 6 -4 16 -4 22 0 8 5 10 -1 7 -20 -3 -14 -2 -26 2 -26 4 0 42
38 85 85 58 65 76 90 72 106 -4 15 -2 19 9 15 8 -3 14 -1 14 4 0 16 -23 11
-55 -13z"/>
<path d="M2405 609 c-16 -10 -41 -19 -55 -19 -17 0 -35 -12 -55 -37 -48 -60
-69 -91 -38 -56 31 35 93 66 133 68 16 0 25 7 25 18 0 9 9 23 20 31 29 22 6
18 -30 -5z"/>
<path d="M2572 550 c0 -19 2 -27 5 -17 2 9 2 25 0 35 -3 9 -5 1 -5 -18z"/>
<path d="M2076 384 c-5 -14 -4 -15 9 -4 17 14 19 20 6 20 -5 0 -12 -7 -15 -16z"/>
<path d="M1270 646 c0 -8 57 -36 75 -36 8 0 15 6 15 13 0 9 -13 14 -35 15 -20
1 -40 4 -45 7 -6 4 -10 4 -10 1z"/>
<path d="M1375 630 c-3 -6 1 -7 9 -4 18 7 21 14 7 14 -6 0 -13 -4 -16 -10z"/>
<path d="M1410 603 c-39 -7 -47 -22 -10 -18 19 3 38 9 44 15 10 10 9 10 -34 3z"/>
<path d="M2968 356 c-14 -14 -28 -29 -29 -33 -2 -5 -28 -23 -57 -42 -29 -18
-51 -35 -49 -37 5 -6 57 20 57 29 0 4 8 7 18 7 9 0 34 5 54 10 35 10 37 13 36
50 0 22 -1 40 -2 40 -1 0 -13 -11 -28 -24z"/>
<path d="M2883 325 c-18 -8 -33 -19 -33 -24 0 -6 18 -1 40 10 58 31 53 40 -7
14z"/>
<path d="M2948 258 c-49 -30 -61 -48 -32 -48 8 0 12 -4 9 -10 -3 -5 -19 -10
-35 -10 -17 0 -59 -12 -95 -26 -36 -14 -72 -23 -81 -20 -11 4 -14 1 -12 -12 2
-11 11 -16 26 -14 12 2 22 -1 22 -7 0 -5 16 -26 35 -46 27 -29 30 -36 14 -32
-15 4 -19 1 -17 -11 3 -14 20 -17 111 -20 l107 -3 0 146 c0 80 -1 145 -2 144
-2 0 -24 -14 -50 -31z m-94 -175 c64 -20 73 -28 47 -42 -16 -9 -27 -8 -48 4
-40 21 -93 69 -69 61 11 -4 43 -14 70 -23z m86 -43 c-10 -19 -30 -28 -30 -14
0 6 30 33 38 34 1 0 -2 -9 -8 -20z"/>
<path d="M2668 164 c-16 -8 -28 -17 -28 -19 0 -11 19 -4 41 15 29 23 24 25
-13 4z"/>
<path d="M2650 120 c0 -5 -7 -10 -15 -10 -8 0 -15 -4 -15 -10 0 -13 3 -13 34
3 14 8 23 17 19 20 -10 10 -23 8 -23 -3z"/>
<path d="M2593 3 c9 -2 23 -2 30 0 6 3 -1 5 -18 5 -16 0 -22 -2 -12 -5z"/>
</g>
</svg>
